<svg width="195" height="60" viewBox="0 0 195 60" fill="none" xmlns="http://www.w3.org/2000/svg">
<path d="M49 9.74603V28.0294C49 30.6816 47.9464 33.2251 46.0711 35.1005L32 49.1716V48.4706C32 45.8184 33.0536 43.2749 34.9289 41.3995L43.0711 33.2574C44.9464 31.382 46 28.8385 46 26.1863V6.93138C44.7475 5.90597 43.4102 4.97737 42 4.15727V15.6863C42 17.2776 41.3679 18.8037 40.2426 19.9289L39 21.1716V2.62709C37.7117 2.05703 36.3759 1.57237 35 1.18045V25.1716L32 28.1716V0.45C30.6938 0.216021 29.3586 0.0647146 28 0V32.1716L26.2721 33.8995C22.8964 37.2751 21 41.8535 21 46.6274V60H25V46.6274C25 42.9144 26.475 39.3534 29.1005 36.7279L42 23.8284V26.1863C42 27.7776 41.3679 29.3037 40.2426 30.4289L32.1005 38.5711C29.475 41.1966 28 44.7575 28 48.4706V60H32V57.3137C32 55.7224 32.6321 54.1963 33.7574 53.0711L48.8995 37.9289C51.525 35.3034 53 31.7425 53 28.0294V15.1375C51.8708 13.1937 50.5268 11.3861 49 9.74603Z" fill="white" style="fill:white;fill-opacity:1;"/>
<path d="M25 0V24.8284L22.7574 22.5858C21.6321 21.4606 21 19.9344 21 18.3431V0.45C22.3062 0.216021 23.6414 0.0647146 25 0Z" fill="white" style="fill:white;fill-opacity:1;"/>
<path d="M0 15.1375C1.12924 13.1937 2.47317 11.3861 4 9.74603V17.5714C4 19.2135 4.67299 20.7838 5.86207 21.9163L7 23V6.93138C8.25247 5.90597 9.58976 4.97737 11 4.15727V26.8095L20.8029 36.1456C20.0949 37.3749 19.5136 38.6721 19.0676 40.0168L11 32.3333V34.5114C11 36.1799 11.6947 37.7729 12.9173 38.9082L18.1905 43.8047C18.0643 44.7351 18 45.678 18 46.6274V49.0864L10.1955 41.8394C8.15782 39.9473 7 37.2921 7 34.5114V28.5238L3.10345 24.8128C1.12165 22.9254 0 20.3082 0 17.5714V15.1375Z" fill="white" style="fill:white;fill-opacity:1;"/>
<path d="M14 2.62709C15.2883 2.05703 16.6241 1.57237 18 1.18045V18.8571C18 21.5939 19.1216 24.2111 21.1034 26.0985L25 29.8095V30.9289L24.1508 31.7782C23.6796 32.2493 23.2332 32.7405 22.8123 33.2498L18.3448 28.9951C15.5703 26.3527 14 22.6886 14 18.8571V2.62709Z" fill="white" style="fill:white;fill-opacity:1;"/>
<path d="M76.454 28.085C75.57 28.085 74.7653 27.915 74.04 27.575C73.326 27.235 72.7083 26.776 72.187 26.198C71.677 25.6087 71.2803 24.9513 70.997 24.226C70.7136 23.4893 70.572 22.7357 70.572 21.965C70.572 21.1603 70.7193 20.3953 71.014 19.67C71.32 18.9333 71.7336 18.2817 72.255 17.715C72.7876 17.137 73.411 16.6837 74.125 16.355C74.8503 16.015 75.6436 15.845 76.505 15.845C77.3776 15.845 78.171 16.0207 78.885 16.372C79.6103 16.7233 80.228 17.1937 80.738 17.783C81.248 18.3723 81.6446 19.0297 81.928 19.755C82.2113 20.4803 82.353 21.2283 82.353 21.999C82.353 22.7923 82.2056 23.5573 81.911 24.294C81.6163 25.0193 81.2026 25.671 80.67 26.249C80.1486 26.8157 79.5253 27.2633 78.8 27.592C78.086 27.9207 77.304 28.085 76.454 28.085ZM72.952 21.965C72.952 22.4863 73.0313 22.9907 73.19 23.478C73.3486 23.9653 73.5753 24.4017 73.87 24.787C74.176 25.161 74.5443 25.4613 74.975 25.688C75.417 25.9033 75.9156 26.011 76.471 26.011C77.0376 26.011 77.542 25.8977 77.984 25.671C78.426 25.433 78.7943 25.1213 79.089 24.736C79.3836 24.3393 79.6046 23.903 79.752 23.427C79.9106 22.9397 79.99 22.4523 79.99 21.965C79.99 21.4437 79.905 20.945 79.735 20.469C79.5763 19.9817 79.344 19.551 79.038 19.177C78.7433 18.7917 78.375 18.4913 77.933 18.276C77.5023 18.0493 77.015 17.936 76.471 17.936C75.893 17.936 75.383 18.055 74.941 18.293C74.5103 18.5197 74.1476 18.8257 73.853 19.211C73.5583 19.5963 73.3316 20.027 73.173 20.503C73.0256 20.979 72.952 21.4663 72.952 21.965Z" fill="white" style="fill:white;fill-opacity:1;"/>
<path d="M84.5606 28V15.93H89.6776C90.2329 15.93 90.7429 16.0433 91.2076 16.27C91.6722 16.4967 92.0746 16.8027 92.4146 17.188C92.7659 17.5733 93.0379 18.004 93.2306 18.48C93.4232 18.956 93.5196 19.4433 93.5196 19.942C93.5196 20.622 93.3609 21.268 93.0436 21.88C92.7262 22.492 92.2899 22.9907 91.7346 23.376C91.1792 23.7613 90.5219 23.954 89.7626 23.954H86.9066V28H84.5606ZM86.9066 21.897H89.6266C89.9099 21.897 90.1649 21.8177 90.3916 21.659C90.6182 21.5003 90.7996 21.2737 90.9356 20.979C91.0716 20.673 91.1396 20.3273 91.1396 19.942C91.1396 19.5227 91.0602 19.1657 90.9016 18.871C90.7542 18.5763 90.5559 18.3553 90.3066 18.208C90.0686 18.0607 89.8079 17.987 89.5246 17.987H86.9066V21.897Z" fill="white" style="fill:white;fill-opacity:1;"/>
<path d="M103.941 25.943V28H95.5604V15.93H103.788V17.987H97.9064V20.894H102.989V22.798H97.9064V25.943H103.941Z" fill="white" style="fill:white;fill-opacity:1;"/>
<path d="M108.524 20.248V28H106.178V15.93H108.048L114.287 23.886V15.947H116.633V28H114.678L108.524 20.248Z" fill="white" style="fill:white;fill-opacity:1;"/>
<path d="M131.235 19.092C131.156 19.0127 131.008 18.905 130.793 18.769C130.589 18.633 130.334 18.5027 130.028 18.378C129.733 18.2533 129.41 18.1457 129.059 18.055C128.708 17.953 128.351 17.902 127.988 17.902C127.353 17.902 126.872 18.021 126.543 18.259C126.226 18.497 126.067 18.8313 126.067 19.262C126.067 19.5907 126.169 19.8513 126.373 20.044C126.577 20.2367 126.883 20.401 127.291 20.537C127.699 20.673 128.209 20.8203 128.821 20.979C129.614 21.1717 130.3 21.4097 130.878 21.693C131.467 21.965 131.915 22.3277 132.221 22.781C132.538 23.223 132.697 23.8123 132.697 24.549C132.697 25.195 132.578 25.7503 132.34 26.215C132.102 26.6683 131.773 27.0367 131.354 27.32C130.935 27.6033 130.459 27.813 129.926 27.949C129.393 28.0737 128.827 28.136 128.226 28.136C127.625 28.136 127.025 28.0737 126.424 27.949C125.823 27.8243 125.245 27.6487 124.69 27.422C124.135 27.184 123.625 26.9007 123.16 26.572L124.197 24.549C124.299 24.651 124.48 24.787 124.741 24.957C125.002 25.1157 125.319 25.28 125.693 25.45C126.067 25.6087 126.475 25.7447 126.917 25.858C127.359 25.9713 127.807 26.028 128.26 26.028C128.895 26.028 129.376 25.9203 129.705 25.705C130.034 25.4897 130.198 25.1837 130.198 24.787C130.198 24.4243 130.068 24.141 129.807 23.937C129.546 23.733 129.184 23.5573 128.719 23.41C128.254 23.2513 127.705 23.0813 127.07 22.9C126.311 22.6847 125.676 22.4467 125.166 22.186C124.656 21.914 124.276 21.574 124.027 21.166C123.778 20.758 123.653 20.248 123.653 19.636C123.653 18.8087 123.846 18.1173 124.231 17.562C124.628 16.9953 125.16 16.5703 125.829 16.287C126.498 15.9923 127.24 15.845 128.056 15.845C128.623 15.845 129.155 15.9073 129.654 16.032C130.164 16.1567 130.64 16.321 131.082 16.525C131.524 16.729 131.921 16.95 132.272 17.188L131.235 19.092Z" fill="white" style="fill:white;fill-opacity:1;"/>
<path d="M140.029 28.085C139.145 28.085 138.34 27.915 137.615 27.575C136.901 27.235 136.283 26.776 135.762 26.198C135.252 25.6087 134.855 24.9513 134.572 24.226C134.289 23.4893 134.147 22.7357 134.147 21.965C134.147 21.1603 134.294 20.3953 134.589 19.67C134.895 18.9333 135.309 18.2817 135.83 17.715C136.363 17.137 136.986 16.6837 137.7 16.355C138.425 16.015 139.219 15.845 140.08 15.845C140.953 15.845 141.746 16.0207 142.46 16.372C143.185 16.7233 143.803 17.1937 144.313 17.783C144.823 18.3723 145.22 19.0297 145.503 19.755C145.786 20.4803 145.928 21.2283 145.928 21.999C145.928 22.7923 145.781 23.5573 145.486 24.294C145.191 25.0193 144.778 25.671 144.245 26.249C143.724 26.8157 143.1 27.2633 142.375 27.592C141.661 27.9207 140.879 28.085 140.029 28.085ZM136.527 21.965C136.527 22.4863 136.606 22.9907 136.765 23.478C136.924 23.9653 137.15 24.4017 137.445 24.787C137.751 25.161 138.119 25.4613 138.55 25.688C138.992 25.9033 139.491 26.011 140.046 26.011C140.613 26.011 141.117 25.8977 141.559 25.671C142.001 25.433 142.369 25.1213 142.664 24.736C142.959 24.3393 143.18 23.903 143.327 23.427C143.486 22.9397 143.565 22.4523 143.565 21.965C143.565 21.4437 143.48 20.945 143.31 20.469C143.151 19.9817 142.919 19.551 142.613 19.177C142.318 18.7917 141.95 18.4913 141.508 18.276C141.077 18.0493 140.59 17.936 140.046 17.936C139.468 17.936 138.958 18.055 138.516 18.293C138.085 18.5197 137.723 18.8257 137.428 19.211C137.133 19.5963 136.907 20.027 136.748 20.503C136.601 20.979 136.527 21.4663 136.527 21.965Z" fill="white" style="fill:white;fill-opacity:1;"/>
<path d="M153.253 28.085C152.289 28.085 151.468 27.9263 150.788 27.609C150.119 27.2803 149.575 26.8327 149.156 26.266C148.748 25.6993 148.447 25.059 148.255 24.345C148.062 23.6197 147.966 22.866 147.966 22.084V15.93H150.312V22.084C150.312 22.5827 150.357 23.07 150.448 23.546C150.55 24.0107 150.714 24.43 150.941 24.804C151.167 25.178 151.468 25.4727 151.842 25.688C152.216 25.9033 152.68 26.011 153.236 26.011C153.802 26.011 154.273 25.9033 154.647 25.688C155.032 25.4613 155.332 25.161 155.548 24.787C155.774 24.413 155.939 23.9937 156.041 23.529C156.143 23.053 156.194 22.5713 156.194 22.084V15.93H158.523V22.084C158.523 22.9113 158.421 23.6877 158.217 24.413C158.024 25.1383 157.712 25.7787 157.282 26.334C156.862 26.878 156.318 27.3087 155.65 27.626C154.981 27.932 154.182 28.085 153.253 28.085Z" fill="white" style="fill:white;fill-opacity:1;"/>
<path d="M161.294 28V15.93H166.632C167.187 15.93 167.697 16.0433 168.162 16.27C168.638 16.4967 169.046 16.8027 169.386 17.188C169.737 17.5733 170.003 18.004 170.185 18.48C170.377 18.956 170.474 19.4433 170.474 19.942C170.474 20.452 170.383 20.945 170.202 21.421C170.032 21.8857 169.782 22.2937 169.454 22.645C169.125 22.9963 168.74 23.2683 168.298 23.461L171.052 28H168.468L165.986 23.954H163.64V28H161.294ZM163.64 21.897H166.581C166.875 21.897 167.136 21.812 167.363 21.642C167.589 21.4607 167.771 21.2227 167.907 20.928C168.043 20.6333 168.111 20.3047 168.111 19.942C168.111 19.5567 168.031 19.2223 167.873 18.939C167.714 18.6443 167.51 18.412 167.261 18.242C167.023 18.072 166.762 17.987 166.479 17.987H163.64V21.897Z" fill="white" style="fill:white;fill-opacity:1;"/>
<path d="M172.21 21.88C172.21 21.1433 172.34 20.4237 172.601 19.721C172.873 19.007 173.264 18.361 173.774 17.783C174.284 17.1937 174.907 16.729 175.644 16.389C176.38 16.0377 177.219 15.862 178.16 15.862C179.27 15.862 180.228 16.1057 181.033 16.593C181.849 17.0803 182.455 17.715 182.852 18.497L181.05 19.738C180.846 19.2847 180.579 18.9277 180.251 18.667C179.922 18.395 179.571 18.208 179.197 18.106C178.823 17.9927 178.454 17.936 178.092 17.936C177.502 17.936 176.987 18.055 176.545 18.293C176.114 18.531 175.751 18.8427 175.457 19.228C175.162 19.6133 174.941 20.044 174.794 20.52C174.658 20.996 174.59 21.472 174.59 21.948C174.59 22.4807 174.675 22.9963 174.845 23.495C175.015 23.9823 175.253 24.4187 175.559 24.804C175.876 25.178 176.25 25.4783 176.681 25.705C177.123 25.9203 177.604 26.028 178.126 26.028C178.5 26.028 178.879 25.9657 179.265 25.841C179.65 25.7163 180.007 25.518 180.336 25.246C180.664 24.974 180.919 24.6227 181.101 24.192L183.022 25.297C182.784 25.8977 182.393 26.4077 181.849 26.827C181.316 27.2463 180.715 27.5637 180.047 27.779C179.378 27.9943 178.715 28.102 178.058 28.102C177.196 28.102 176.409 27.9263 175.695 27.575C174.981 27.2123 174.363 26.7363 173.842 26.147C173.332 25.5463 172.929 24.8777 172.635 24.141C172.351 23.393 172.21 22.6393 172.21 21.88Z" fill="white" style="fill:white;fill-opacity:1;"/>
<path d="M193.384 25.943V28H185.003V15.93H193.231V17.987H187.349V20.894H192.432V22.798H187.349V25.943H193.384Z" fill="white" style="fill:white;fill-opacity:1;"/>
<path d="M77.4945 42.272V44H71.5065V35.48H77.3865V37.208H73.4745V38.864H76.8345V40.46H73.4745V42.272H77.4945Z" fill="white" style="fill:white;fill-opacity:1;"/>
<path d="M85.9381 39.128V44H83.9701V35.48H85.5301L89.4781 40.496V35.48H91.4461V44H89.8381L85.9381 39.128Z" fill="white" style="fill:white;fill-opacity:1;"/>
<path d="M98.3556 44V35.48H101.536C102.472 35.48 103.252 35.672 103.876 36.056C104.508 36.432 104.984 36.944 105.304 37.592C105.624 38.232 105.784 38.944 105.784 39.728C105.784 40.592 105.608 41.344 105.256 41.984C104.904 42.624 104.408 43.12 103.768 43.472C103.136 43.824 102.392 44 101.536 44H98.3556ZM103.78 39.728C103.78 39.232 103.692 38.796 103.516 38.42C103.34 38.036 103.084 37.74 102.748 37.532C102.412 37.316 102.008 37.208 101.536 37.208H100.324V42.272H101.536C102.016 42.272 102.42 42.164 102.748 41.948C103.084 41.724 103.34 41.42 103.516 41.036C103.692 40.644 103.78 40.208 103.78 39.728Z" fill="white" style="fill:white;fill-opacity:1;"/>
<path d="M115.957 44.072C115.317 44.072 114.737 43.952 114.217 43.712C113.705 43.464 113.261 43.136 112.885 42.728C112.517 42.312 112.233 41.848 112.033 41.336C111.833 40.816 111.733 40.28 111.733 39.728C111.733 39.16 111.837 38.62 112.045 38.108C112.261 37.596 112.557 37.14 112.933 36.74C113.317 36.332 113.769 36.012 114.289 35.78C114.809 35.548 115.377 35.432 115.993 35.432C116.625 35.432 117.197 35.556 117.709 35.804C118.229 36.044 118.673 36.372 119.041 36.788C119.417 37.204 119.705 37.672 119.905 38.192C120.105 38.704 120.205 39.228 120.205 39.764C120.205 40.332 120.101 40.872 119.893 41.384C119.685 41.896 119.389 42.356 119.005 42.764C118.621 43.164 118.169 43.484 117.649 43.724C117.137 43.956 116.573 44.072 115.957 44.072ZM113.737 39.752C113.737 40.08 113.785 40.4 113.881 40.712C113.977 41.016 114.117 41.288 114.301 41.528C114.493 41.768 114.729 41.96 115.009 42.104C115.289 42.248 115.609 42.32 115.969 42.32C116.345 42.32 116.673 42.248 116.953 42.104C117.233 41.952 117.465 41.752 117.649 41.504C117.833 41.256 117.969 40.98 118.057 40.676C118.153 40.364 118.201 40.048 118.201 39.728C118.201 39.4 118.153 39.084 118.057 38.78C117.961 38.476 117.817 38.204 117.625 37.964C117.433 37.716 117.197 37.524 116.917 37.388C116.637 37.252 116.321 37.184 115.969 37.184C115.593 37.184 115.265 37.256 114.985 37.4C114.713 37.544 114.481 37.74 114.289 37.988C114.105 38.228 113.965 38.504 113.869 38.816C113.781 39.12 113.737 39.432 113.737 39.752Z" fill="white" style="fill:white;fill-opacity:1;"/>
<path d="M129.091 35.492H130.903L131.791 38.216L132.679 35.492H134.503L133.051 39.452L133.915 41.72L136.051 35.48H138.199L134.875 44H133.171L131.791 40.664L130.423 44H128.707L125.395 35.48H127.531L129.679 41.72L130.519 39.452L129.091 35.492Z" fill="white" style="fill:white;fill-opacity:1;"/>
<path d="M150.939 44V38.924L149.103 42.62H148.023L146.187 38.924V44H144.219V35.48H146.355L148.563 39.932L150.783 35.48H152.907V44H150.939Z" fill="white" style="fill:white;fill-opacity:1;"/>
<path d="M165.811 42.272V44H159.823V35.48H165.703V37.208H161.791V38.864H165.151V40.46H161.791V42.272H165.811Z" fill="white" style="fill:white;fill-opacity:1;"/>
<path d="M174.255 39.128V44H172.287V35.48H173.847L177.795 40.496V35.48H179.763V44H178.155L174.255 39.128Z" fill="white" style="fill:white;fill-opacity:1;"/>
<path d="M193.164 37.208H190.572V44H188.604V37.208H186V35.48H193.164V37.208Z" fill="white" style="fill:white;fill-opacity:1;"/>
</svg>
